<svg width="21" height="21" viewBox="0 0 21 21" fill="none" xmlns="http://www.w3.org/2000/svg">
<g clip-path="url(#clip0_42_171)">
<path d="M5.48968 0H4.9623C4.89501 0 4.83119 0.01414 4.76937 0.0342318C4.46045 0.134416 4.23212 0.46421 4.23212 0.859819V1.22285V2.15206V2.6355C4.23212 2.72533 4.24708 2.8102 4.26879 2.89147C4.36175 3.24053 4.63529 3.49532 4.9623 3.49532H5.48968C5.89303 3.49532 6.21986 3.11041 6.21986 2.6355V2.15206V1.22285V0.859819C6.21986 0.38491 5.89303 0 5.48968 0Z" fill="#494949"/>
<path d="M15.8701 0H15.3427C14.9393 0 14.6125 0.38491 14.6125 0.859819V1.22285V2.15206V2.6355C14.6125 3.11041 14.9393 3.49532 15.3427 3.49532H15.8701C16.2734 3.49532 16.6002 3.11041 16.6002 2.6355V2.15206V1.22285V0.859819C16.6001 0.38491 16.2732 0 15.8701 0Z" fill="#494949"/>
<path d="M18.5638 2.15206H17.258V2.6355C17.258 3.47244 16.6353 4.15329 15.8699 4.15329H15.3425C14.5771 4.15329 13.9544 3.47244 13.9544 2.6355V2.15206H6.87787V2.6355C6.87787 3.47244 6.25509 4.15329 5.48971 4.15329H4.96233C4.19692 4.15329 3.57417 3.47244 3.57417 2.6355V2.15206H2.43641C1.71166 2.15206 1.1239 2.70311 1.1239 3.38248V19.7696C1.1239 20.4502 1.71162 21 2.43641 21H18.5636C19.289 21 19.8761 20.4501 19.8761 19.7696V3.38265C19.8763 2.70328 19.2892 2.15206 18.5638 2.15206ZM18.1568 19.1939L2.79548 19.1879V5.97652H18.1568V19.1939Z" fill="#494949"/>
<path d="M12.1451 9.16028H16.1851C16.5358 9.16028 16.8194 8.81009 16.8194 8.37729C16.8194 7.94449 16.5356 7.59429 16.1851 7.59429H12.1451C11.7944 7.59429 11.5108 7.94449 11.5108 8.37729C11.5108 8.80991 11.7944 9.16028 12.1451 9.16028Z" fill="#494949"/>
<path d="M12.1451 11.9886H16.1851C16.5358 11.9886 16.8194 11.6384 16.8194 11.2056C16.8194 10.7728 16.5356 10.4226 16.1851 10.4226H12.1451C11.7944 10.4226 11.5108 10.7728 11.5108 11.2056C11.5108 11.6384 11.7944 11.9886 12.1451 11.9886Z" fill="#494949"/>
<path d="M12.1451 14.8169H16.1851C16.5358 14.8169 16.8194 14.4666 16.8194 14.0339C16.8194 13.6011 16.5356 13.2509 16.1851 13.2509H12.1451C11.7944 13.2509 11.5108 13.6011 11.5108 14.0339C11.5108 14.4666 11.7944 14.8169 12.1451 14.8169Z" fill="#494949"/>
<path d="M12.1451 17.6454H16.1851C16.5358 17.6454 16.8194 17.2951 16.8194 16.8624C16.8194 16.4296 16.5356 16.0794 16.1851 16.0794H12.1451C11.7944 16.0794 11.5108 16.4296 11.5108 16.8624C11.5108 17.2951 11.7944 17.6454 12.1451 17.6454Z" fill="#494949"/>
<path d="M4.98965 9.16028H9.02962C9.38029 9.16028 9.66389 8.81009 9.66389 8.37729C9.66389 7.94449 9.38012 7.59429 9.02962 7.59429H4.98965C4.63894 7.59429 4.35535 7.94449 4.35535 8.37729C4.35538 8.80991 4.63894 9.16028 4.98965 9.16028Z" fill="#494949"/>
<path d="M4.98965 11.9886H9.02962C9.38029 11.9886 9.66389 11.6384 9.66389 11.2056C9.66389 10.7728 9.38012 10.4226 9.02962 10.4226H4.98965C4.63894 10.4226 4.35535 10.7728 4.35535 11.2056C4.35538 11.6384 4.63894 11.9886 4.98965 11.9886Z" fill="#494949"/>
<path d="M4.98965 14.8169H9.02962C9.38029 14.8169 9.66389 14.4666 9.66389 14.0339C9.66389 13.6011 9.38012 13.2509 9.02962 13.2509H4.98965C4.63894 13.2509 4.35535 13.6011 4.35535 14.0339C4.35535 14.4666 4.63894 14.8169 4.98965 14.8169Z" fill="#494949"/>
<path d="M4.98965 17.6454H9.02962C9.38029 17.6454 9.66389 17.2951 9.66389 16.8624C9.66389 16.4296 9.38012 16.0794 9.02962 16.0794H4.98965C4.63894 16.0794 4.35535 16.4296 4.35535 16.8624C4.35538 17.2951 4.63894 17.6454 4.98965 17.6454Z" fill="#494949"/>
</g>
<defs>
<clipPath id="clip0_42_171">
<rect width="21" height="21" fill="white"/>
</clipPath>
</defs>
</svg>
