<svg width="73" height="73" viewBox="0 0 73 73" fill="none" xmlns="http://www.w3.org/2000/svg">
<path d="M73 36.5C73 56.6584 56.6584 73 36.5 73C16.3416 73 0 56.6584 0 36.5C0 16.3416 16.3416 0 36.5 0C56.6584 0 73 16.3416 73 36.5Z" fill="#C4C4C4"/>
<path d="M36.438 42C44.17 42 50.438 36.1797 50.438 29C50.438 21.8203 44.17 16 36.438 16C28.7061 16 22.438 21.8203 22.438 29C22.438 36.1797 28.7061 42 36.438 42Z" stroke="white" stroke-width="5" stroke-miterlimit="10" stroke-linecap="round" stroke-linejoin="round"/>
<path fill-rule="evenodd" clip-rule="evenodd" d="M10 62.1294C13.9049 51.7787 24.3242 44.5 36.4381 44.5C48.8498 44.5 59.4824 52.141 63.1522 62.8982C61.8658 64.2257 60.4795 65.4557 59.0054 66.5762C59.0039 66.57 59.0024 66.5637 59.001 66.5574C56.7906 56.8926 47.6211 49.5 36.4381 49.5C25.5025 49.5 16.4923 56.5691 14.032 65.9193C12.5941 64.7589 11.2461 63.4915 10 62.1294Z" fill="white"/>
</svg>
